<svg width="67" height="67" viewBox="0 0 67 67" fill="none" xmlns="http://www.w3.org/2000/svg">
<rect x="0.905" y="1.18524" width="64.9098" height="64.9098" rx="32.4549" fill="url(#paint0_radial_23_3684)" stroke="#FE724C" stroke-width="1.81"/>
<path d="M38.0352 44.5587C38.0352 47.0118 36.6022 49 34.1492 49H24.9891C22.536 49 21.103 47.0118 21.103 44.5587" stroke="#FE724C" stroke-width="2.22062" stroke-miterlimit="10" stroke-linecap="round"/>
<path d="M39.007 39.0072C40.2332 39.0072 41.2276 40.2501 41.2276 41.783C41.2276 43.3159 40.2332 44.5587 39.007 44.5587H20.1318C18.9056 44.5587 17.9111 43.3159 17.9111 41.783C17.9111 40.2501 18.9056 39.0072 20.1318 39.0072" stroke="#FE724C" stroke-width="2.22062" stroke-miterlimit="10" stroke-linecap="round"/>
<path d="M39.5622 39.0072H28.1336C27.9866 39.0073 27.8456 39.0657 27.7415 39.1696L25.8797 41.0314C25.8539 41.0572 25.8233 41.0777 25.7896 41.0917C25.7559 41.1056 25.7198 41.1128 25.6833 41.1128C25.6468 41.1128 25.6107 41.1056 25.577 41.0917C25.5433 41.0777 25.5127 41.0572 25.4869 41.0314L23.6251 39.1696C23.521 39.0657 23.38 39.0073 23.233 39.0072H19.5766C19.1349 39.0072 18.7113 38.8317 18.3989 38.5194C18.0866 38.2071 17.9111 37.7834 17.9111 37.3417C17.9111 36.9 18.0866 36.4764 18.3989 36.1641C18.7113 35.8517 19.1349 35.6763 19.5766 35.6763H39.5622C40.0039 35.6763 40.4275 35.8517 40.7398 36.1641C41.0521 36.4764 41.2276 36.9 41.2276 37.3417C41.2276 37.7834 41.0521 38.2071 40.7398 38.5194C40.4275 38.8317 40.0039 39.0072 39.5622 39.0072Z" fill="#FE724C" stroke="#FE724C" stroke-width="2.22062" stroke-miterlimit="10" stroke-linecap="round"/>
<path d="M20.1318 34.8435V34.8283C20.1318 31.0116 23.2546 29.0144 27.0713 29.0144H32.0677C35.8843 29.0144 39.0071 31.0268 39.0071 34.8435V34.8283" stroke="#FE724C" stroke-width="2.22062" stroke-miterlimit="10" stroke-linecap="round"/>
<path d="M32.4146 23.4629L32.9308 27.902" stroke="#FE724C" stroke-width="2.22062" stroke-miterlimit="10" stroke-linecap="round"/>
<path d="M33.4551 49H43.1224C43.6826 48.9999 44.2221 48.7882 44.6328 48.4071C45.0435 48.0261 45.2949 47.5039 45.3368 46.9452L47.8197 23.4629" stroke="#FE724C" stroke-width="2.22062" stroke-miterlimit="10" stroke-linecap="round"/>
<path d="M41.2275 23.4629L42.3378 19.0217L45.5994 17.9113" stroke="#FE724C" stroke-width="2.22062" stroke-linecap="round" stroke-linejoin="round"/>
<path d="M31.2349 23.4629H48.9998" stroke="#FE724C" stroke-width="2.22062" stroke-miterlimit="10" stroke-linecap="round"/>
<defs>
<radialGradient id="paint0_radial_23_3684" cx="0" cy="0" r="1" gradientUnits="userSpaceOnUse" gradientTransform="translate(33.3599 33.6401) rotate(90) scale(33.3599)">
<stop stop-color="#D9D9D9" stop-opacity="0"/>
<stop offset="1" stop-color="#FFC429"/>
</radialGradient>
</defs>
</svg>
