<svg width="67" height="67" viewBox="0 0 67 67" fill="none" xmlns="http://www.w3.org/2000/svg">
<rect x="1.61467" y="1.61464" width="64.051" height="64.051" rx="32.0255" fill="url(#paint0_radial_23_3698)" stroke="#FE724C" stroke-width="2.66879"/>
<path d="M53.3339 25.9039C53.3339 22.0451 50.0093 18.0079 50.0093 19.2187C50.0093 20.4296 50.6242 36.5108 50.6242 36.5108L50.0093 47.0269C50.0093 47.7441 50.5907 48.3255 51.3079 48.3255C52.0251 48.3255 52.6064 47.7441 52.6064 47.0269L52.263 36.4505C52.263 36.4505 53.3339 29.7627 53.3339 25.9039Z" stroke="#FE724C" stroke-width="0.820339" stroke-miterlimit="10"/>
<mask id="path-3-inside-1_23_3698" fill="white">
<path d="M53.3339 25.9039C53.3339 22.0451 50.0093 18.0079 50.0093 19.2187C50.0093 20.4296 50.6242 36.5108 50.6242 36.5108L50.0093 47.0269C50.0093 47.7441 50.5907 48.3255 51.3079 48.3255C52.0251 48.3255 52.6064 47.7441 52.6064 47.0269L52.263 36.4505C52.263 36.4505 53.3339 29.7627 53.3339 25.9039Z"/>
</mask>
<path d="M50.6242 36.5108L54.7189 36.7503L54.7305 36.5523L54.7229 36.3541L50.6242 36.5108ZM50.0093 47.0269L45.9146 46.7875L45.9076 46.9071V47.0269H50.0093ZM52.6064 47.0269H56.7081V46.9604L56.706 46.8938L52.6064 47.0269ZM52.263 36.4505L48.2129 35.8019L48.1507 36.1904L48.1635 36.5836L52.263 36.4505ZM57.4356 25.9039C57.4356 22.9278 56.2102 20.1961 55.1574 18.4985C54.6398 17.6637 53.9673 16.7582 53.2058 16.1022C52.9998 15.9248 52.6994 15.6886 52.3179 15.4753C52.0017 15.2985 51.2571 14.9222 50.2444 14.8994C48.9605 14.8705 47.538 15.4396 46.649 16.7539C45.9564 17.778 45.9076 18.8011 45.9076 19.2187H54.111C54.111 19.4849 54.0881 20.3977 53.4442 21.3498C52.6039 22.5921 51.2528 23.1276 50.0598 23.1007C49.1381 23.0799 48.5039 22.7414 48.3143 22.6354C48.0594 22.4929 47.9018 22.3606 47.8517 22.3174C47.7135 22.1984 47.8723 22.3163 48.1857 22.8218C48.7953 23.8048 49.2322 25.0211 49.2322 25.9039H57.4356ZM45.9076 19.2187C45.9076 19.924 46.0668 24.3726 46.2178 28.4699C46.2948 30.5574 46.3717 32.6067 46.4294 34.134C46.4582 34.8977 46.4822 35.531 46.4991 35.9734C46.5075 36.1946 46.5141 36.3681 46.5186 36.4863C46.5209 36.5454 46.5226 36.5907 46.5238 36.6212C46.5243 36.6365 46.5248 36.6481 46.5251 36.6558C46.5252 36.6597 46.5253 36.6626 46.5254 36.6646C46.5254 36.6656 46.5255 36.6663 46.5255 36.6668C46.5255 36.6671 46.5255 36.6673 46.5255 36.6674C46.5255 36.6675 46.5255 36.6676 50.6242 36.5108C54.7229 36.3541 54.7229 36.3541 54.7229 36.3539C54.7229 36.3538 54.7229 36.3536 54.7229 36.3534C54.7229 36.3529 54.7228 36.3522 54.7228 36.3512C54.7227 36.3493 54.7226 36.3464 54.7225 36.3425C54.7222 36.3348 54.7217 36.3233 54.7212 36.3081C54.72 36.2777 54.7183 36.2326 54.716 36.1736C54.7115 36.0557 54.7049 35.8825 54.6965 35.6616C54.6797 35.2198 54.6557 34.5873 54.6269 33.8244C54.5693 32.2986 54.4925 30.252 54.4157 28.1678C54.3388 26.083 54.2621 23.9633 54.2046 22.2906C54.1759 21.4537 54.1521 20.7327 54.1355 20.1853C54.1272 19.9113 54.1209 19.6853 54.1167 19.5122C54.1145 19.4257 54.113 19.3561 54.1121 19.3025C54.1116 19.2758 54.1113 19.2552 54.1112 19.2397C54.111 19.2236 54.111 19.2174 54.111 19.2187H45.9076ZM46.5295 36.2714L45.9146 46.7875L54.104 47.2664L54.7189 36.7503L46.5295 36.2714ZM45.9076 47.0269C45.9076 50.0094 48.3253 52.4272 51.3079 52.4272V44.2238C52.856 44.2238 54.111 45.4788 54.111 47.0269H45.9076ZM51.3079 52.4272C54.2904 52.4272 56.7081 50.0094 56.7081 47.0269H48.5047C48.5047 45.4788 49.7598 44.2238 51.3079 44.2238V52.4272ZM56.706 46.8938L56.3626 36.3174L48.1635 36.5836L48.5069 47.16L56.706 46.8938ZM52.263 36.4505C56.3131 37.099 56.3132 37.0988 56.3132 37.0985C56.3132 37.0984 56.3133 37.0982 56.3133 37.098C56.3134 37.0975 56.3134 37.097 56.3135 37.0963C56.3138 37.095 56.314 37.0933 56.3144 37.0912C56.315 37.087 56.316 37.0812 56.3171 37.0738C56.3195 37.0591 56.3228 37.038 56.327 37.011C56.3355 36.9569 56.3477 36.8788 56.3631 36.779C56.3938 36.5795 56.4371 36.2929 56.489 35.9381C56.5925 35.2294 56.7305 34.2429 56.8688 33.13C57.1382 30.9623 57.4356 28.1077 57.4356 25.9039H49.2322C49.2322 27.5588 48.9941 29.9776 48.7281 32.1184C48.5987 33.1598 48.469 34.0865 48.3717 34.7523C48.3232 35.0847 48.2829 35.3508 48.255 35.5321C48.2411 35.6227 48.2302 35.6921 48.2231 35.7378C48.2195 35.7607 48.2168 35.7777 48.2151 35.7885C48.2142 35.7939 48.2136 35.7977 48.2132 35.8C48.2131 35.8011 48.2129 35.8018 48.2129 35.8022C48.2129 35.8023 48.2129 35.8024 48.2129 35.8024C48.2129 35.8023 48.2129 35.8022 48.2129 35.8022C48.2129 35.8021 48.2129 35.8019 52.263 36.4505Z" fill="#FE724C" mask="url(#path-3-inside-1_23_3698)"/>
<path d="M17.8184 19.6991C17.8184 19.6991 17.8908 22.3988 17.8908 24.9621C17.8908 26.8846 17.3069 28.0918 16.4748 28.5754L16.4933 47.0269C16.4933 47.7441 15.9119 48.3255 15.1947 48.3255C14.4775 48.3255 13.8961 47.7441 13.8961 47.0269L14.4226 28.5792C13.587 28.0982 13 26.8896 13 24.9621C13 22.3988 13.0724 19.6991 13.0724 19.6991" stroke="#FE724C" stroke-width="1.29858" stroke-miterlimit="10" stroke-linecap="round" stroke-linejoin="round"/>
<path d="M15.4453 19.6991V25.9224" stroke="#FE724C" stroke-width="1.29858" stroke-miterlimit="10" stroke-linecap="round" stroke-linejoin="round"/>
<path d="M33.7771 46.5581C40.934 46.5581 46.7358 40.7563 46.7358 33.5994C46.7358 26.4425 40.934 20.6407 33.7771 20.6407C26.6202 20.6407 20.8184 26.4425 20.8184 33.5994C20.8184 40.7563 26.6202 46.5581 33.7771 46.5581Z" stroke="#FE724C" stroke-width="2.46102" stroke-miterlimit="10" stroke-linecap="round" stroke-linejoin="round"/>
<path d="M34.6958 33.6265C34.6958 34.1322 34.2858 34.5421 33.7801 34.5421C33.2744 34.5421 32.8645 34.1322 32.8645 33.6265C32.8645 33.1207 33.2744 32.7108 33.7801 32.7108C34.2859 32.7108 34.6958 33.1208 34.6958 33.6265Z" fill="#FE724C" stroke="#FE724C" stroke-width="13.9458" stroke-miterlimit="10" stroke-linecap="round" stroke-linejoin="round"/>
<path d="M13.5253 25.9729H17.3967L16.7038 28.7446L16.6926 28.7894L16.6916 28.8355L16.3149 46.9175C16.301 47.5868 15.7544 48.122 15.085 48.122C14.3956 48.122 13.8408 47.5555 13.8551 46.8662L14.2304 28.8526L14.2316 28.7978L14.2183 28.7446L13.5253 25.9729Z" fill="#FE724C" stroke="#FE724C" stroke-width="0.820339"/>
<defs>
<radialGradient id="paint0_radial_23_3698" cx="0" cy="0" r="1" gradientUnits="userSpaceOnUse" gradientTransform="translate(33.6402 33.6401) rotate(90) scale(33.3599)">
<stop stop-color="#D9D9D9" stop-opacity="0"/>
<stop offset="1" stop-color="#FFC429"/>
</radialGradient>
</defs>
</svg>
