<svg width="46" height="46" viewBox="0 0 46 46" fill="none" xmlns="http://www.w3.org/2000/svg">
<rect x="0.905605" y="0.905605" width="43.469" height="43.469" rx="21.7345" fill="url(#paint0_radial_15_1027)" stroke="#FE724C" stroke-width="1.81121"/>
<path d="M28.0306 11.2135L28.0175 11.2097L28.0141 11.2229L27.272 14.0852L27.2677 14.1017H27.2848H27.4174C27.6434 14.1017 27.8388 14.1842 28.0043 14.3496C28.1698 14.5151 28.2522 14.7105 28.2522 14.9366V34.4424C28.2522 34.9159 28.0857 35.3145 27.7526 35.6388C27.4194 35.9633 27.0251 36.1253 26.5693 36.1253H19.7846C19.3111 36.1253 18.9126 35.9589 18.5883 35.6258C18.2638 35.2925 18.1017 34.8983 18.1017 34.4424V19.177V19.1637H18.0885C16.6785 19.1637 15.4804 18.6704 14.4935 17.6835C13.5066 16.6965 13.0133 15.4985 13.0133 14.0885C13.0133 12.6785 13.5066 11.4804 14.4935 10.4935C15.4804 9.5066 16.6785 9.01325 18.0885 9.01325C19.4985 9.01325 20.6965 9.5066 21.6835 10.4935C22.6704 11.4804 23.1637 12.6785 23.1637 14.0885V14.1017H23.177H25.1116H25.1219L25.1245 14.0918L26.2375 9.85186C26.3076 9.64149 26.4038 9.48034 26.5253 9.36749C26.647 9.2545 26.8038 9.17593 26.9963 9.13218C27.1904 9.08805 27.3399 9.06172 27.445 9.05296C27.5501 9.0442 27.7345 9.03978 27.9985 9.03975L32.5021 10.3643L32.5021 10.3644L32.503 10.3646C32.818 10.4346 33.0488 10.5917 33.1968 10.8355C33.3451 11.0797 33.3799 11.3409 33.3014 11.6202C33.223 11.8991 33.0488 12.1083 32.778 12.248C32.5071 12.3879 32.2233 12.4228 31.9262 12.353C31.926 12.353 31.9259 12.3529 31.9258 12.3529L28.0306 11.2135ZM19.7714 17.0038V17.0269L19.7913 17.0152C20.3057 16.7137 20.7137 16.3057 21.0152 15.7913L21.0269 15.7714H21.0038H19.7846H19.7714V15.7846V17.0038ZM18.0885 17.4941H18.1017V17.4808V14.9366C18.1017 14.7105 18.1842 14.5151 18.3496 14.3496C18.5151 14.1842 18.7105 14.1017 18.9366 14.1017H21.4808H21.4941V14.0885C21.4941 13.1485 21.1614 12.3457 20.4963 11.6806C19.8313 11.0156 19.0284 10.6829 18.0885 10.6829C17.1485 10.6829 16.3457 11.0156 15.6806 11.6806C15.0156 12.3457 14.6829 13.1485 14.6829 14.0885C14.6829 15.0284 15.0156 15.8313 15.6806 16.4963C16.3457 17.1614 17.1485 17.4941 18.0885 17.4941ZM22.8589 15.7714H22.8495L22.8464 15.7804C22.5997 16.5029 22.2076 17.1328 21.6702 17.6702C21.1328 18.2076 20.5029 18.5997 19.7804 18.8464L19.7714 18.8495V18.8589V20.8731V20.8864H19.7846H23.3095H23.3197L23.3223 20.8765L24.6739 15.788L24.6783 15.7714H24.6611H22.8589ZM26.5825 16.7917L26.5565 16.7883L25.4699 20.8697L25.4654 20.8864H25.4827H26.5693H26.5825V20.8731V16.7917Z" fill="#FE724C" stroke="#FE724C" stroke-width="0.0265025"/>
<defs>
<radialGradient id="paint0_radial_15_1027" cx="0" cy="0" r="1" gradientUnits="userSpaceOnUse" gradientTransform="translate(22.6401 22.6401) rotate(90) scale(22.6401)">
<stop stop-color="#D9D9D9" stop-opacity="0"/>
<stop offset="1" stop-color="#FFC429"/>
</radialGradient>
</defs>
</svg>
