<svg width="46" height="46" viewBox="0 0 46 46" fill="none" xmlns="http://www.w3.org/2000/svg">
<rect x="0.905605" y="0.905605" width="43.469" height="43.469" rx="21.7345" fill="url(#paint0_radial_13_155)" stroke="#FE724C" stroke-width="1.81121"/>
<path d="M35.212 18.0158V30.641C35.212 31.0912 34.8473 31.4555 34.3975 31.4555H10.7762C10.3264 31.4555 9.96167 31.0912 9.96167 30.641V18.0158C9.96167 17.5664 10.3264 17.2013 10.7762 17.2013L24.6216 14.9864" stroke="#FE724C" stroke-width="2.71681" stroke-miterlimit="10" stroke-linecap="round" stroke-linejoin="round"/>
<path d="M31.5542 13.9641C33.6084 14.1719 35.212 15.9071 35.212 18.0158" stroke="#FE724C" stroke-width="2.71681" stroke-miterlimit="10" stroke-linecap="round" stroke-linejoin="round"/>
<path d="M9.96168 17.6593L10.3689 22.903C11.4937 22.903 12.4053 21.9914 12.4053 20.8671C12.4053 19.7423 13.3168 18.8303 14.4416 18.8303C15.5663 18.8303 16.4779 19.7423 16.4779 20.8671C16.4779 21.9914 17.3895 22.903 18.5142 22.903C19.6389 22.903 20.5505 21.9914 20.5505 20.8671C20.5505 19.7423 21.4621 18.8303 22.5868 18.8303C23.7116 18.8303 24.6232 19.7423 24.6232 20.8671C24.6232 21.9914 25.5347 22.903 26.6595 22.903C27.7842 22.903 28.6958 21.9914 28.6958 20.8671C28.6958 19.7423 29.6074 18.8303 30.7321 18.8303C31.8568 18.8303 32.7684 19.7423 32.7684 20.8671C32.7684 21.9914 33.68 22.903 34.8047 22.903L34.413 14.4897" fill="#FE724C"/>
<path d="M9.96167 26.8845H35.212" stroke="#FE724C" stroke-width="2.71681" stroke-miterlimit="10" stroke-linecap="round" stroke-linejoin="round"/>
<path d="M28.0849 17.3381C29.9598 17.3381 31.4796 15.8182 31.4796 13.9434C31.4796 12.0685 29.9598 10.5487 28.0849 10.5487C26.21 10.5487 24.6902 12.0685 24.6902 13.9434C24.6902 15.8182 26.21 17.3381 28.0849 17.3381Z" fill="white" stroke="#FE724C" stroke-width="2.71681" stroke-miterlimit="10" stroke-linecap="round" stroke-linejoin="round"/>
<path d="M28.0848 13.1287C28.0848 10.8794 29.908 9.05603 32.1575 9.05603" stroke="#FE724C" stroke-width="1.81121" stroke-miterlimit="10" stroke-linecap="round" stroke-linejoin="round"/>
<defs>
<radialGradient id="paint0_radial_13_155" cx="0" cy="0" r="1" gradientUnits="userSpaceOnUse" gradientTransform="translate(22.6401 22.6401) rotate(90) scale(22.6401)">
<stop stop-color="#D9D9D9" stop-opacity="0"/>
<stop offset="1" stop-color="#FFC429"/>
</radialGradient>
</defs>
</svg>
