<svg width="39" height="39" viewBox="0 0 39 39" fill="none" xmlns="http://www.w3.org/2000/svg">
<rect x="0.773842" y="0.773842" width="37.1444" height="37.1444" rx="18.5722" fill="url(#paint0_radial_15_1603)" stroke="#FE724C" stroke-width="1.54768"/>
<path d="M19.445 31.2987C19.3342 31.2987 19.2252 31.2703 19.1285 31.2161C17.1597 30.0629 15.3119 28.7145 13.6131 27.1914C9.88846 23.8393 8 20.4987 8 17.2624C8.00038 15.9229 8.43014 14.6187 9.22619 13.5414C10.0222 12.4641 11.1427 11.6704 12.423 11.2767C13.7033 10.883 15.0762 10.9101 16.34 11.3539C17.6038 11.7978 18.6921 12.6352 19.445 13.743C20.1979 12.6352 21.2862 11.7978 22.55 11.3539C23.8138 10.9101 25.1867 10.883 26.467 11.2767C27.7473 11.6704 28.8678 12.4641 29.6638 13.5414C30.4599 14.6187 30.8896 15.9229 30.89 17.2624C30.89 20.4987 29.0015 23.8393 25.2769 27.1914C23.5781 28.7145 21.7303 30.0629 19.7615 31.2161C19.6648 31.2703 19.5558 31.2987 19.445 31.2987Z" fill="#FE724C"/>
<path d="M9.29566 17.2624C9.29715 15.9456 9.82091 14.6831 10.752 13.752C11.6831 12.8209 12.9456 12.2972 14.2624 12.2957C15.2429 12.2941 16.2019 12.5833 17.018 13.1268C17.8341 13.6703 18.4707 14.4436 18.8473 15.3489C18.8965 15.4668 18.9796 15.5675 19.0859 15.6384C19.1923 15.7092 19.3172 15.747 19.445 15.747C19.5728 15.747 19.6977 15.7092 19.8041 15.6384C19.9104 15.5675 19.9935 15.4668 20.0427 15.3489C20.4851 14.2896 21.2808 13.4162 22.2943 12.8772C23.3079 12.3383 24.4769 12.1669 25.6025 12.3924C26.7281 12.6179 27.7408 13.2263 28.4686 14.1141C29.1963 15.0019 29.5941 16.1144 29.5943 17.2624M19.445 31.2987C19.3342 31.2987 19.2252 31.2703 19.1285 31.2161C17.1597 30.0629 15.3119 28.7145 13.6131 27.1914C9.88846 23.8393 8 20.4987 8 17.2624C8.00038 15.9229 8.43014 14.6187 9.22619 13.5414C10.0222 12.4641 11.1427 11.6704 12.423 11.2767C13.7033 10.883 15.0762 10.9101 16.34 11.3539C17.6038 11.7978 18.6921 12.6352 19.445 13.743C20.1979 12.6352 21.2862 11.7978 22.55 11.3539C23.8138 10.9101 25.1867 10.883 26.467 11.2767C27.7473 11.6704 28.8678 12.4641 29.6638 13.5414C30.4599 14.6187 30.8896 15.9229 30.89 17.2624C30.89 20.4987 29.0015 23.8393 25.2769 27.1914C23.5781 28.7145 21.7303 30.0629 19.7615 31.2161C19.6648 31.2703 19.5558 31.2987 19.445 31.2987Z" stroke="#FE724C"/>
<defs>
<radialGradient id="paint0_radial_15_1603" cx="0" cy="0" r="1" gradientUnits="userSpaceOnUse" gradientTransform="translate(19.3461 19.3461) rotate(90) scale(19.3461)">
<stop stop-color="#D9D9D9" stop-opacity="0"/>
<stop offset="1" stop-color="#FFC429"/>
</radialGradient>
</defs>
</svg>
