<svg width="46" height="46" viewBox="0 0 46 46" fill="none" xmlns="http://www.w3.org/2000/svg">
<rect x="0.905605" y="0.905605" width="43.469" height="43.469" rx="21.7345" fill="url(#paint0_radial_2906_9)" stroke="#FE724C" stroke-width="1.81121"/>
<g clip-path="url(#clip0_2906_9)">
<path d="M31.874 7.85035L31.8738 7.8503C31.8071 7.83699 31.1103 7.70342 30.1906 7.76714C29.2725 7.83074 28.109 8.09269 27.1335 8.89178C26.3549 9.52963 25.8298 10.387 25.5552 11.4384C23.9442 10.866 22.1381 10.8357 20.4451 11.4386C20.1704 10.3872 19.6454 9.52971 18.8666 8.89183C17.8912 8.09275 16.7277 7.83078 15.8095 7.76715C14.8898 7.70341 14.193 7.83695 14.1262 7.85033L14.1261 7.85035C13.4499 7.98615 13.0085 8.64488 13.1444 9.32237L13.1444 9.32239C13.28 9.99763 13.9346 10.4377 14.6115 10.3029C14.6454 10.2968 15.0568 10.226 15.5867 10.2552C16.1449 10.286 16.7984 10.4258 17.289 10.8313C17.7557 11.2171 18.0537 11.845 18.1434 12.7456C17.6034 13.1923 17.1244 13.714 16.7228 14.2982H10.4147C9.72431 14.2982 9.16461 14.8579 9.16461 15.5482C9.16461 18.3608 11.6006 20.5489 14.366 20.2792C14.3165 20.4225 14.2575 20.5934 14.1893 20.7911C13.7939 21.9365 13.0878 23.9821 12.1283 26.7613C11.9029 27.4139 12.2493 28.1256 12.9019 28.3509C13.5546 28.5761 14.2662 28.2297 14.4915 27.5772L14.8361 26.5792L18.1645 34.9663C18.9535 36.9547 20.8443 38.2422 22.9824 38.2493L22.9844 38.2495C22.9883 38.2497 22.9937 38.2499 23.0001 38.2499C23.0032 38.2499 23.006 38.2498 23.0086 38.2498C23.0113 38.2497 23.0138 38.2496 23.0158 38.2495L23.0178 38.2493C25.1554 38.2422 27.0462 36.9548 27.8355 34.9664L27.8355 34.9664L31.1639 26.5793L31.5084 27.5772L31.5084 27.5772C31.7339 28.23 32.4455 28.5761 33.098 28.3509L33.098 28.3508C33.7506 28.1255 34.0969 27.4139 33.8716 26.7613L33.6353 26.8429L33.8716 26.7613C33.6484 26.1147 33.4543 25.5528 33.2839 25.0594C32.3135 22.25 32.1096 21.6595 31.6473 20.2805C34.4153 20.543 36.8354 18.3476 36.8354 15.5482C36.8354 14.8579 36.2757 14.2982 35.5853 14.2982H29.2799C28.891 13.7005 28.4411 13.2098 27.8573 12.7402C27.9477 11.8424 28.2454 11.2163 28.7111 10.8313C29.2017 10.4258 29.8552 10.2859 30.413 10.255C30.9495 10.2253 31.3633 10.2983 31.3823 10.3017C31.3829 10.3018 31.3831 10.3018 31.383 10.3018L31.4312 10.0565L31.3822 10.3016C32.0595 10.437 32.7177 9.99884 32.8536 9.32199C32.9895 8.64502 32.5508 7.98621 31.874 7.85035ZM25.4894 29.5873L25.4894 29.5873C26.1883 28.7802 25.6155 27.5188 24.5445 27.5188H21.4557C20.3884 27.5188 19.8096 28.7774 20.5108 29.5873L20.5108 29.5873L21.7501 31.0183V35.4461C21.1876 35.1541 20.735 34.6656 20.4885 34.0442L20.2561 34.1364L20.4885 34.0442L16.0874 22.9541C17.6452 18.4424 17.7367 18.1783 17.8273 17.9138C17.8471 17.8562 17.8668 17.7986 17.9016 17.6971L17.9016 17.697C18.8603 14.8975 20.9328 13.4848 22.9746 13.4584C25.0127 13.432 27.1017 14.7862 28.098 17.6956L28.098 17.6957C28.2809 18.2293 28.9957 20.2982 29.4813 21.7037C29.6828 22.2868 29.8448 22.7558 29.9131 22.9536L25.5117 34.0441C25.2651 34.6655 24.8125 35.154 24.2501 35.4461V31.0183L25.4894 29.5873ZM15.4198 17.2264C14.3864 18.1535 12.7865 17.9211 12.0426 16.7983H15.5665C15.5527 16.8386 15.5387 16.8794 15.5245 16.9211C15.4912 17.0182 15.4565 17.1195 15.4198 17.2264ZM33.9572 16.7983C33.227 17.8991 31.6659 18.1529 30.6226 17.2626C30.5655 17.1025 30.5094 16.9478 30.4539 16.7983H33.9572Z" fill="#FE724C" stroke="#FE724C" stroke-width="0.5"/>
<path d="M25.7548 23.9375C26.4854 23.9375 27.0777 23.3452 27.0777 22.6145C27.0777 21.8839 26.4854 21.2916 25.7548 21.2916C25.0242 21.2916 24.4319 21.8839 24.4319 22.6145C24.4319 23.3452 25.0242 23.9375 25.7548 23.9375Z" fill="#FE724C"/>
<path d="M20.2855 23.9375C21.0161 23.9375 21.6084 23.3452 21.6084 22.6145C21.6084 21.8839 21.0161 21.2916 20.2855 21.2916C19.5548 21.2916 18.9625 21.8839 18.9625 22.6145C18.9625 23.3452 19.5548 23.9375 20.2855 23.9375Z" fill="#FE724C"/>
</g>
<defs>
<radialGradient id="paint0_radial_2906_9" cx="0" cy="0" r="1" gradientUnits="userSpaceOnUse" gradientTransform="translate(22.6401 22.6401) rotate(90) scale(22.6401)">
<stop stop-color="#D9D9D9" stop-opacity="0"/>
<stop offset="1" stop-color="#FFC429"/>
</radialGradient>
<clipPath id="clip0_2906_9">
<rect width="30" height="30" fill="white" transform="translate(8 8)"/>
</clipPath>
</defs>
</svg>
