<svg width="46" height="46" viewBox="0 0 46 46" fill="none" xmlns="http://www.w3.org/2000/svg">
<rect x="0.905605" y="0.905605" width="43.469" height="43.469" rx="21.7345" fill="url(#paint0_radial_15_1041)" stroke="#FE724C" stroke-width="1.81121"/>
<path d="M19.6395 18.9886L19.8908 19.1451C20.4671 19.5041 21.0712 19.7529 21.7292 19.7607C21.7623 19.7476 21.8412 19.7183 21.9347 19.7071L22.5681 19.6311L22.4357 20.2551C22.409 20.3808 22.3941 20.5229 22.3763 20.6931C22.3732 20.7221 22.3701 20.752 22.3668 20.7827C22.3464 20.9731 22.3189 21.2088 22.2522 21.414L19.6395 18.9886ZM19.6395 18.9886L19.3941 19.1542M19.6395 18.9886L19.3941 19.1542M19.3941 19.1542C18.8564 19.517 18.2818 19.7609 17.6522 19.7609C17.3994 19.7609 17.1397 19.7061 16.8524 19.6325L16.2826 19.4866V20.0747V31.1739C16.2826 31.9432 16.8829 32.5435 17.6522 32.5435H28.6087C29.378 32.5435 29.9783 31.9432 29.9783 31.1739V28.6345V28.588L29.9689 28.5425C29.9564 28.4819 29.9564 28.4162 29.9689 28.3556L29.9783 28.3101V28.2636V21.3872V21.3202L29.959 21.256C29.9312 21.1633 29.9312 21.069 29.959 20.9763L29.9783 20.9121V20.8451V20.0747V19.4866L29.4085 19.6325C29.1211 19.7061 28.8615 19.7609 28.6087 19.7609C28.0295 19.7609 27.7836 19.6981 27.408 19.6023C27.3041 19.5758 27.1904 19.5468 27.0569 19.5159L26.3815 19.3594L26.5045 20.0416C26.5301 20.1835 26.5497 20.3291 26.5707 20.4856C26.5804 20.5572 26.5903 20.6311 26.6013 20.708C26.634 20.9376 26.6757 21.1911 26.7477 21.4136L26.7481 21.4147M19.3941 19.1542L26.7481 21.4147M26.7481 21.4147C26.7962 21.5622 26.8451 21.7022 26.8925 21.8378C27.0775 22.3671 27.2391 22.8298 27.2391 23.413C27.2391 24.9157 26.0026 26.1522 24.5 26.1522C22.9974 26.1522 21.7609 24.9157 21.7609 23.413C21.7609 22.8329 21.9206 22.3752 22.1043 21.8484M26.7481 21.4147L22.1043 21.8484M22.1043 21.8484C22.1527 21.7096 22.2028 21.5661 22.2521 21.4142L22.1043 21.8484ZM23.1064 14.9034L23.1063 14.9035L23.1106 14.908L23.51 15.3359L23.7034 15.5432L23.9749 15.4617L24.5456 15.2905L24.5456 15.2907L24.5588 15.2864C24.7592 15.2196 24.862 15.1957 24.9565 15.1957C25.2994 15.1957 25.6209 15.3313 25.8774 15.563L26.4763 16.1048L26.7826 16.3819L27.0889 16.1048L27.6878 15.563C27.6878 15.5629 27.6879 15.5629 27.6879 15.5629C27.9444 15.3312 28.2658 15.1957 28.6087 15.1957C29.3766 15.1957 29.9783 15.7973 29.9783 16.5652C29.9783 17.3331 29.3766 17.9348 28.6087 17.9348V18.8478C29.8809 18.8478 30.8913 17.8374 30.8913 16.5652C30.8913 15.293 29.8809 14.2826 28.6087 14.2826C28.0172 14.2826 27.4826 14.5179 27.0758 14.8854L27.0755 14.8857L26.7826 15.1507L26.4897 14.8857L26.4894 14.8854C26.0826 14.5179 25.5481 14.2826 24.9565 14.2826C24.7043 14.2826 24.4811 14.35 24.2767 14.418L23.9841 14.5057L23.78 14.2871C23.2806 13.7385 22.5749 13.3696 21.7609 13.3696C20.8264 13.3696 20.0282 13.8304 19.5343 14.5314L19.2703 14.8982L18.8942 14.6667C18.5461 14.4426 18.1275 14.2826 17.6522 14.2826C16.38 14.2826 15.3696 15.293 15.3696 16.5652C15.3696 17.8374 16.38 18.8478 17.6522 18.8478C18.3106 18.8478 18.8816 18.5623 19.2925 18.1384L19.2925 18.1384L19.2949 18.1359L19.5858 17.8311L19.9123 18.1293L19.9123 18.1293L19.9137 18.1306C20.4068 18.5769 21.0531 18.8478 21.7609 18.8478C21.8578 18.8478 21.9881 18.822 22.0908 18.7969C22.2078 18.7683 22.3503 18.7254 22.4837 18.6679C22.5933 18.6206 22.691 18.5755 22.7613 18.5422C22.7966 18.5256 22.8252 18.5117 22.8453 18.5019L22.8688 18.4904L22.8753 18.4872L22.8771 18.4862L22.8777 18.4859L22.8779 18.4858L22.878 18.4858L22.878 18.4858L22.6739 18.0774L22.8781 18.4858L22.8975 18.4761L22.9159 18.4646L23.587 18.0451V18.8478C23.587 20.051 23.3288 20.9541 23.0956 21.6746C22.9772 22.0403 22.8732 22.3621 22.7995 22.6381C22.7266 22.9112 22.6739 23.1723 22.6739 23.413C22.6739 24.432 23.4811 25.2391 24.5 25.2391C25.5189 25.2391 26.3261 24.432 26.3261 23.413C26.3261 23.1708 26.2728 22.9158 26.1997 22.6493C26.1354 22.4153 26.0476 22.1446 25.9481 21.8379C25.9338 21.7937 25.9192 21.7488 25.9044 21.7032C25.6718 20.9844 25.413 20.0593 25.413 18.8478V17.6209H24.5V17.2215V16.3978L23.8015 16.8343L22.4515 17.6781L22.4448 17.6814C22.4277 17.6898 22.4023 17.702 22.3707 17.717C22.3073 17.747 22.2196 17.7875 22.1223 17.8294C22.0488 17.8611 21.9577 17.8895 21.874 17.9099C21.8332 17.9199 21.7982 17.927 21.7725 17.9313C21.761 17.9333 21.7536 17.9343 21.7497 17.9347C21.2852 17.9319 20.8588 17.7542 20.5272 17.4543C20.5269 17.4541 20.5267 17.4539 20.5265 17.4537L19.8717 16.8558L19.5419 16.5547L19.2336 16.8777L18.6357 17.5041C18.3762 17.7713 18.0346 17.9348 17.6522 17.9348C16.8843 17.9348 16.2826 17.3331 16.2826 16.5652C16.2826 15.7973 16.8843 15.1957 17.6522 15.1957C17.9166 15.1957 18.1671 15.2839 18.403 15.4364L18.4029 15.4365L18.4116 15.4418L19.1534 15.8983L19.515 16.1209L19.7631 15.7763L20.2767 15.0629L20.2768 15.063L20.2797 15.0588C20.6134 14.5841 21.1412 14.2826 21.7609 14.2826C22.2867 14.2826 22.7571 14.5189 23.1064 14.9034ZM24.5 18.8478C24.5 20.1972 24.7905 21.2266 25.0358 21.9843C25.0508 22.0308 25.0654 22.0759 25.0797 22.1198C25.1805 22.4306 25.2609 22.6787 25.3192 22.891C25.386 23.1345 25.413 23.2951 25.413 23.413C25.413 23.9277 25.0147 24.3261 24.5 24.3261C23.9853 24.3261 23.587 23.9277 23.587 23.413C23.587 23.2936 23.6146 23.1249 23.6816 22.8737C23.7479 22.6254 23.8436 22.3285 23.9642 21.9558C24.2089 21.1998 24.5 20.1911 24.5 18.8478ZM18.7432 13.7099L19.0218 13.8174L19.232 13.6052C19.9153 12.9154 20.7749 12.4565 21.7609 12.4565C22.6202 12.4565 23.3795 12.8265 24.0353 13.3769L24.2047 13.519L24.4213 13.4742C24.4819 13.4617 24.5753 13.4383 24.6467 13.4205C24.6844 13.411 24.716 13.4031 24.7335 13.3992C24.8177 13.38 24.8861 13.3696 24.9565 13.3696C25.5252 13.3696 26.0454 13.5711 26.5462 13.8743L26.7826 14.0173L27.019 13.8743C27.5199 13.5711 28.0401 13.3696 28.6087 13.3696C30.3645 13.3696 31.8043 14.8094 31.8043 16.5652C31.8043 17.3508 31.4971 18.0642 31.0028 18.6344L30.8731 18.7842L30.8938 18.9812C30.8976 19.0172 30.8976 19.0494 30.8938 19.0854L30.8913 19.1092V19.1332V20.2174V20.6739H31.3478H32.2609C33.5103 20.6739 34.5435 21.7071 34.5435 22.9565V26.6087C34.5435 27.8581 33.5103 28.8913 32.2609 28.8913H31.3478H30.8913V29.3478V31.1739C30.8913 32.4233 29.8581 33.4565 28.6087 33.4565H17.6522C16.4028 33.4565 15.3696 32.4233 15.3696 31.1739V19.3043C15.3696 19.2573 15.3792 19.2023 15.4 19.144L15.492 18.8865L15.3083 18.6839C14.7849 18.1065 14.4565 17.3744 14.4565 16.5652C14.4565 14.8094 15.8963 13.3696 17.6522 13.3696C17.8124 13.3696 17.9698 13.4061 18.148 13.4697C18.2379 13.5017 18.3288 13.539 18.4287 13.5809C18.4435 13.5871 18.4586 13.5934 18.4739 13.5998C18.5586 13.6354 18.6506 13.6741 18.7432 13.7099ZM31.3478 21.587H30.8913V22.0435V27.5217V27.9783H31.3478H32.2609C33.0302 27.9783 33.6304 27.378 33.6304 26.6087V22.9565C33.6304 22.1872 33.0302 21.587 32.2609 21.587H31.3478Z" fill="#FE724C" stroke="#FE724C" stroke-width="0.913043"/>
<defs>
<radialGradient id="paint0_radial_15_1041" cx="0" cy="0" r="1" gradientUnits="userSpaceOnUse" gradientTransform="translate(22.6401 22.6401) rotate(90) scale(22.6401)">
<stop stop-color="#D9D9D9" stop-opacity="0"/>
<stop offset="1" stop-color="#FFC429"/>
</radialGradient>
</defs>
</svg>
