<svg width="46" height="46" viewBox="0 0 46 46" fill="none" xmlns="http://www.w3.org/2000/svg">
<rect x="0.905605" y="0.905605" width="43.469" height="43.469" rx="21.7345" fill="url(#paint0_radial_15_1032)" stroke="#FE724C" stroke-width="1.81121"/>
<path d="M13.8999 17.9522H32.4549Z" fill="url(#paint1_radial_15_1032)"/>
<path d="M13.8999 17.9522H32.4549" stroke="#FE724C" stroke-width="2.65071" stroke-linecap="round"/>
<path d="M16.6521 19.372C16.5973 18.6048 17.205 17.9522 17.9742 17.9522H28.3809C29.15 17.9522 29.7577 18.6048 29.7029 19.372L28.5669 35.2763C28.5173 35.9698 27.9402 36.5072 27.2449 36.5072H19.1101C18.4148 36.5072 17.8377 35.9698 17.7881 35.2763L16.6521 19.372Z" fill="url(#paint2_radial_15_1032)" stroke="#FE724C" stroke-width="2.65071"/>
<path d="M23.1772 13.9761V11.3254C23.1772 10.5934 23.7706 10 24.5026 10H26.4906" fill="url(#paint3_radial_15_1032)"/>
<path d="M23.1772 13.9761V11.3254C23.1772 10.5934 23.7706 10 24.5026 10H26.4906" stroke="#FE724C" stroke-width="2.65071" stroke-linecap="round"/>
<path d="M17.0287 15.0835C17.1352 14.4444 17.6881 13.976 18.336 13.976H28.0187C28.6666 13.976 29.2195 14.4444 29.326 15.0835L29.8041 17.9521H16.5505L17.0287 15.0835Z" fill="url(#paint4_radial_15_1032)" stroke="#FE724C" stroke-width="2.65071"/>
<defs>
<radialGradient id="paint0_radial_15_1032" cx="0" cy="0" r="1" gradientUnits="userSpaceOnUse" gradientTransform="translate(22.6401 22.6401) rotate(90) scale(22.6401)">
<stop stop-color="#D9D9D9" stop-opacity="0"/>
<stop offset="1" stop-color="#FFC429"/>
</radialGradient>
<radialGradient id="paint1_radial_15_1032" cx="0" cy="0" r="1" gradientUnits="userSpaceOnUse" gradientTransform="translate(23.1774 18.4522) rotate(90) scale(0.5 9.2775)">
<stop stop-color="#D9D9D9" stop-opacity="0"/>
<stop offset="1" stop-color="#FFC429"/>
</radialGradient>
<radialGradient id="paint2_radial_15_1032" cx="0" cy="0" r="1" gradientUnits="userSpaceOnUse" gradientTransform="translate(23.1775 27.2297) rotate(90) scale(9.2775 6.52883)">
<stop stop-color="#D9D9D9" stop-opacity="0"/>
<stop offset="1" stop-color="#FFC429"/>
</radialGradient>
<radialGradient id="paint3_radial_15_1032" cx="0" cy="0" r="1" gradientUnits="userSpaceOnUse" gradientTransform="translate(24.8339 11.988) rotate(90) scale(1.98804 1.6567)">
<stop stop-color="#D9D9D9" stop-opacity="0"/>
<stop offset="1" stop-color="#FFC429"/>
</radialGradient>
<radialGradient id="paint4_radial_15_1032" cx="0" cy="0" r="1" gradientUnits="userSpaceOnUse" gradientTransform="translate(23.1773 15.9641) rotate(90) scale(1.98804 6.62679)">
<stop stop-color="#D9D9D9" stop-opacity="0"/>
<stop offset="1" stop-color="#FFC429"/>
</radialGradient>
</defs>
</svg>
