<svg width="21" height="20" viewBox="0 0 21 20" fill="none" xmlns="http://www.w3.org/2000/svg">
<path d="M12.3139 5.28273L12.6601 5.10965L12.5794 4.73109C12.477 4.25132 12.4767 3.7554 12.5783 3.27549C12.68 2.79557 12.8813 2.34238 13.1694 1.94529C13.4574 1.5482 13.8257 1.21608 14.2504 0.970474C14.675 0.724864 15.1465 0.571244 15.6344 0.519575C16.1222 0.467907 16.6154 0.519343 17.0821 0.670549C17.5488 0.821755 17.9785 1.06935 18.3433 1.39729C18.7082 1.72523 19 2.12619 19.1999 2.57416C19.3998 3.02214 19.5034 3.50713 19.5038 3.99769C19.5038 4.7106 19.2862 5.40654 18.88 5.99243C18.4738 6.57843 17.8983 7.02639 17.2305 7.27639C16.5627 7.52639 15.8345 7.56651 15.1433 7.39138C14.4521 7.21626 13.8308 6.83423 13.3627 6.29642L13.1083 6.00425L12.7618 6.17746L7.6898 8.71298L7.343 8.88635L7.42448 9.26541C7.55678 9.88082 7.5205 10.5205 7.31948 11.117L7.1805 11.5294L7.56974 11.724L12.4828 14.1806L12.8721 14.3752L13.1186 14.0165C13.6008 13.3147 14.3224 12.8127 15.1481 12.6046C15.9738 12.3965 16.847 12.4965 17.6043 12.8858C18.3616 13.2751 18.9511 13.9272 19.2623 14.7198C19.5735 15.5124 19.5851 16.3913 19.295 17.1919C19.0049 17.9925 18.4329 18.6599 17.6861 19.0691C16.9394 19.4783 16.0691 19.6014 15.2382 19.4152C14.4073 19.229 13.6727 18.7463 13.172 18.0575C12.6714 17.3687 12.4389 16.521 12.5182 15.6732L12.5501 15.3324L12.2439 15.1793L6.91282 12.5138L6.60664 12.3607L6.35312 12.5907C5.83809 13.058 5.19555 13.3613 4.50744 13.4619C3.81933 13.5626 3.11684 13.456 2.48955 13.1558C1.86227 12.8556 1.33861 12.3753 0.985362 11.7763C0.632116 11.1773 0.465288 10.4866 0.506154 9.79236C0.547021 9.09813 0.793728 8.43181 1.21482 7.87836C1.6359 7.32491 2.21229 6.90941 2.87047 6.68487C3.52865 6.46032 4.23879 6.43689 4.91034 6.61756C5.58188 6.79824 6.1844 7.17484 6.64106 7.69933L6.8954 7.99145L7.24185 7.81826L12.3139 5.28273Z" fill="url(#paint0_radial_23_3573)" stroke="#272D2F" stroke-width="1.00021"/>
<defs>
<radialGradient id="paint0_radial_23_3573" cx="0" cy="0" r="1" gradientUnits="userSpaceOnUse" gradientTransform="translate(10.0023 10) rotate(90) scale(10 10.0023)">
<stop stop-color="#D9D9D9" stop-opacity="0"/>
<stop offset="1" stop-color="#FFC429"/>
</radialGradient>
</defs>
</svg>
