<svg width="25" height="23" viewBox="0 0 25 23" fill="none" xmlns="http://www.w3.org/2000/svg">
<path d="M12.445 21.2987C12.3342 21.2987 12.2252 21.2703 12.1285 21.2161C10.1597 20.0629 8.31189 18.7145 6.61306 17.1914C2.88846 13.8393 1 10.4987 1 7.26236C1.00038 5.92285 1.43014 4.61875 2.22619 3.54145C3.02224 2.46415 4.14266 1.67039 5.423 1.27669C6.70334 0.88298 8.07617 0.910059 9.33999 1.35395C10.6038 1.79784 11.6921 2.63516 12.445 3.74301C13.1979 2.63516 14.2862 1.79784 15.55 1.35395C16.8138 0.910059 18.1867 0.88298 19.467 1.27669C20.7473 1.67039 21.8678 2.46415 22.6638 3.54145C23.4599 4.61875 23.8896 5.92285 23.89 7.26236C23.89 10.4987 22.0015 13.8393 18.2769 17.1914C16.5781 18.7145 14.7303 20.0629 12.7615 21.2161C12.6648 21.2703 12.5558 21.2987 12.445 21.2987Z" stroke="#272D2F" stroke-width="1.81"/>
</svg>
